<svg width="59" height="59" viewBox="0 0 59 59" fill="none" xmlns="http://www.w3.org/2000/svg">
<circle cx="29.7427" cy="29.9339" r="29.0662" fill="url(#paint0_linear)"/>
<path d="M39.538 34.5509C39.538 36.3366 40.046 37.0487 41.3746 37.0487C44.3358 37.0487 46.2213 33.2755 46.2213 27.0003C46.2213 17.409 39.2319 12.8174 30.5057 12.8174C21.5288 12.8174 13.3638 18.8375 13.3638 30.2144C13.3638 41.0812 20.5063 46.9993 31.4751 46.9993C35.1994 46.9993 37.6992 46.5911 41.5234 45.3157L42.344 48.7317C38.5687 49.9583 34.534 50.3133 31.4241 50.3133C17.0371 50.3133 9.3313 42.4055 9.3313 30.2123C9.3313 17.9171 18.2615 9.55017 30.5568 9.55017C43.3622 9.55017 50.1454 17.2028 50.1454 26.5901C50.1454 34.5488 47.6477 40.6199 39.791 40.6199C36.2176 40.6199 33.8729 39.1914 33.5668 36.0262C32.6485 39.5464 30.1996 40.6199 26.8814 40.6199C22.4428 40.6199 18.7185 37.1996 18.7185 30.3144C18.7185 23.376 21.9858 19.0905 27.8528 19.0905C30.9649 19.0905 32.9036 20.3149 33.7666 22.2536L35.2483 19.5496H39.5337V34.5509H39.538ZM33.265 27.8166C33.265 25.0128 31.1711 23.8372 29.4365 23.8372C27.5489 23.8372 25.4593 25.3656 25.4593 29.8573C25.4593 33.4286 27.0408 35.4182 29.4365 35.4182C31.1201 35.4182 33.265 34.3469 33.265 31.3878V27.8166Z" fill="black"/>
<defs>
<linearGradient id="paint0_linear" x1="0.676514" y1="29.9339" x2="58.8089" y2="29.9339" gradientUnits="userSpaceOnUse">
<stop stop-color="#84FAB0"/>
<stop offset="1" stop-color="#8FD3F4"/>
</linearGradient>
</defs>
</svg>
