<svg width="74" height="74" viewBox="0 0 74 74" fill="none" xmlns="http://www.w3.org/2000/svg">
<g filter="url(#filter0_d)">
<g filter="url(#filter1_b)">
<rect x="4" width="65.6" height="65.6" rx="6" fill="white" fill-opacity="0.13"/>
</g>
<path d="M63 32.5008C63 17.865 51.1352 6 36.4996 6C21.8703 6 10.0104 17.855 10 32.4822V52.9895C10.0079 56.3107 12.7016 58.9994 16.0248 58.9994H36.5104C51.1413 58.9936 63 47.1328 63 32.5008Z" fill="#294172"/>
<path d="M44.2803 12.2745C37.4257 12.2745 31.8491 17.8509 31.8491 24.7057V31.3038H25.2784C18.4238 31.3038 12.8472 36.8806 12.8472 43.7352C12.8472 50.5896 18.4238 56.1664 25.2784 56.1664C32.133 56.1664 37.7095 50.5896 37.7095 43.7352V37.1369H44.2803C51.1349 37.1369 56.7117 31.5603 56.7117 24.7057C56.7117 17.8509 51.1349 12.2745 44.2803 12.2745ZM31.8951 43.7352C31.8951 47.3835 28.9269 50.3517 25.2784 50.3517C21.6298 50.3517 18.6616 47.3835 18.6616 43.7352C18.6616 40.0867 21.6298 37.1184 25.2784 37.1184H31.8491V37.1369H31.8951V43.7352ZM44.2803 31.3224H37.7095V31.3038H37.6638V24.7057C37.6638 21.0572 40.632 18.089 44.2803 18.089C47.9286 18.089 50.897 21.0572 50.897 24.7057C50.897 28.3542 47.9286 31.3224 44.2803 31.3224Z" fill="#3C6EB4"/>
<path d="M47.0278 12.6515C46.063 12.3993 45.3222 12.2817 44.2803 12.2817C37.4116 12.2817 31.8428 17.8507 31.8428 24.7189V31.3112H26.6339C25.0098 31.3112 23.6972 32.5876 23.6982 34.2088C23.6982 35.82 24.9963 37.1017 26.6033 37.1017L30.916 37.1025C31.428 37.1025 31.8433 37.5166 31.8433 38.0277V43.7321C31.8368 47.3533 28.8995 50.2865 25.2783 50.2865C24.0516 50.2865 23.7479 50.1258 22.9105 50.1258C21.1513 50.1258 19.9744 51.3051 19.9744 52.9265C19.9748 54.2679 21.1242 55.4211 22.5308 55.7892C23.4956 56.0413 24.2363 56.1591 25.2783 56.1591C32.147 56.1591 37.7157 50.5902 37.7157 43.7217V37.1296H42.9246C44.5488 37.1296 45.8614 35.8533 45.8603 34.232C45.8603 32.6207 44.5622 31.3392 42.9553 31.3392L38.6426 31.3383C38.3969 31.3386 38.1612 31.2412 37.9873 31.0677C37.8134 30.8941 37.7156 30.6586 37.7153 30.4129V24.7086C37.7217 21.0874 40.6591 18.1542 44.2803 18.1542C45.5069 18.1542 45.8106 18.315 46.6481 18.315C48.4072 18.315 49.5842 17.1356 49.5842 15.5143C49.5838 14.1728 48.4343 13.0196 47.0278 12.6515Z" fill="white"/>
</g>
<defs>
<filter id="filter0_d" x="0" y="0" width="73.6" height="73.6" filterUnits="userSpaceOnUse" color-interpolation-filters="sRGB">
<feFlood flood-opacity="0" result="BackgroundImageFix"/>
<feColorMatrix in="SourceAlpha" type="matrix" values="0 0 0 0 0 0 0 0 0 0 0 0 0 0 0 0 0 0 127 0"/>
<feOffset dy="4"/>
<feGaussianBlur stdDeviation="2"/>
<feColorMatrix type="matrix" values="0 0 0 0 0 0 0 0 0 0 0 0 0 0 0 0 0 0 0.25 0"/>
<feBlend mode="normal" in2="BackgroundImageFix" result="effect1_dropShadow"/>
<feBlend mode="normal" in="SourceGraphic" in2="effect1_dropShadow" result="shape"/>
</filter>
<filter id="filter1_b" x="-50" y="-54" width="173.6" height="173.6" filterUnits="userSpaceOnUse" color-interpolation-filters="sRGB">
<feFlood flood-opacity="0" result="BackgroundImageFix"/>
<feGaussianBlur in="BackgroundImage" stdDeviation="27"/>
<feComposite in2="SourceAlpha" operator="in" result="effect1_backgroundBlur"/>
<feBlend mode="normal" in="SourceGraphic" in2="effect1_backgroundBlur" result="shape"/>
</filter>
</defs>
</svg>
