<svg width="74" height="74" viewBox="0 0 74 74" fill="none" xmlns="http://www.w3.org/2000/svg">
<g filter="url(#filter0_d)">
<g filter="url(#filter1_b)">
<rect x="4" width="65.6" height="65.6" rx="6" fill="white" fill-opacity="0.13"/>
</g>
<g filter="url(#filter2_d)">
<path d="M63.944 30.5054L39.4938 6.05609C38.0866 4.64797 35.8028 4.64797 34.3939 6.05609L29.3167 11.1334L35.7573 17.5741C37.254 17.0684 38.9703 17.4077 40.1634 18.6008C41.3622 19.8015 41.699 21.5325 41.181 23.034L47.3881 29.2414C48.8898 28.724 50.6225 29.0587 51.8219 30.2601C53.4982 31.9358 53.4982 34.6516 51.8219 36.3284C50.1452 38.0053 47.4294 38.0053 45.7518 36.3284C44.4909 35.0662 44.1794 33.2144 44.8178 31.661L39.0292 25.8724L39.0285 41.1057C39.4481 41.3132 39.8314 41.5873 40.1634 41.9173C41.8397 43.593 41.8397 46.309 40.1634 47.9871C38.4867 49.6632 35.7696 49.6632 34.0953 47.9871C32.419 46.309 32.419 43.5932 34.0953 41.9175C34.497 41.5156 34.9744 41.1973 35.4999 40.981V25.6057C34.9736 25.3909 34.4959 25.0724 34.0953 24.6692C32.8252 23.4009 32.5198 21.5373 33.1706 19.9778L26.8216 13.628L10.0566 30.3923C8.64781 31.8017 8.64781 34.0857 10.0566 35.494L34.5072 59.9437C35.9148 61.3521 38.1981 61.3521 39.6076 59.9437L63.9438 35.6076C65.3521 34.1988 65.3523 31.9135 63.944 30.5054Z" fill="#DE4C36"/>
</g>
</g>
<defs>
<filter id="filter0_d" x="0" y="0" width="73.6" height="73.6" filterUnits="userSpaceOnUse" color-interpolation-filters="sRGB">
<feFlood flood-opacity="0" result="BackgroundImageFix"/>
<feColorMatrix in="SourceAlpha" type="matrix" values="0 0 0 0 0 0 0 0 0 0 0 0 0 0 0 0 0 0 127 0"/>
<feOffset dy="4"/>
<feGaussianBlur stdDeviation="2"/>
<feColorMatrix type="matrix" values="0 0 0 0 0 0 0 0 0 0 0 0 0 0 0 0 0 0 0.25 0"/>
<feBlend mode="normal" in2="BackgroundImageFix" result="effect1_dropShadow"/>
<feBlend mode="normal" in="SourceGraphic" in2="effect1_dropShadow" result="shape"/>
</filter>
<filter id="filter1_b" x="-50" y="-54" width="173.6" height="173.6" filterUnits="userSpaceOnUse" color-interpolation-filters="sRGB">
<feFlood flood-opacity="0" result="BackgroundImageFix"/>
<feGaussianBlur in="BackgroundImage" stdDeviation="27"/>
<feComposite in2="SourceAlpha" operator="in" result="effect1_backgroundBlur"/>
<feBlend mode="normal" in="SourceGraphic" in2="effect1_backgroundBlur" result="shape"/>
</filter>
<filter id="filter2_d" x="5" y="5" width="64.0001" height="64" filterUnits="userSpaceOnUse" color-interpolation-filters="sRGB">
<feFlood flood-opacity="0" result="BackgroundImageFix"/>
<feColorMatrix in="SourceAlpha" type="matrix" values="0 0 0 0 0 0 0 0 0 0 0 0 0 0 0 0 0 0 127 0"/>
<feOffset dy="4"/>
<feGaussianBlur stdDeviation="2"/>
<feColorMatrix type="matrix" values="0 0 0 0 0 0 0 0 0 0 0 0 0 0 0 0 0 0 0.25 0"/>
<feBlend mode="normal" in2="BackgroundImageFix" result="effect1_dropShadow"/>
<feBlend mode="normal" in="SourceGraphic" in2="effect1_dropShadow" result="shape"/>
</filter>
</defs>
</svg>
