<svg width="74" height="74" viewBox="0 0 74 74" fill="none" xmlns="http://www.w3.org/2000/svg">
<g filter="url(#filter0_d)">
<g filter="url(#filter1_b)">
<rect x="4" width="65.6" height="65.6" rx="6" fill="white" fill-opacity="0.13"/>
</g>
<g filter="url(#filter2_d)">
<path d="M18.0662 54.0019L13.855 6.75H60.145L55.9281 53.9944L36.9719 59.25L18.0662 54.0019Z" fill="#1572B6"/>
<path d="M37 55.2338L52.3187 50.9869L55.9225 10.6144H37V55.2338Z" fill="#33A9DC"/>
<path d="M37 27.7331H44.6688L45.1975 21.7987H37V16.0031H51.5312L51.3925 17.5575L49.9694 33.5288H37V27.7331Z" fill="white"/>
<path d="M37.0356 42.7838L37.0093 42.7912L30.5556 41.0475L30.1431 36.4256H24.325L25.1368 45.525L37.0075 48.8213L37.0356 48.8138V42.7838Z" fill="#EBEBEB"/>
<path d="M44.1758 33.2831L43.4783 41.0438L37.0151 42.7875V48.8175L48.8951 45.525L48.9833 44.5463L49.9901 33.2831H44.1758Z" fill="white"/>
<path d="M37.0206 16.0031V21.7987H23.0218L22.9056 20.4956L22.6412 17.5575L22.5024 16.0031H37.0206Z" fill="#EBEBEB"/>
<path d="M37 27.7331V33.5287H30.6269L30.5106 32.2256L30.2481 29.2875L30.1094 27.7331H37Z" fill="#EBEBEB"/>
</g>
</g>
<defs>
<filter id="filter0_d" x="0" y="0" width="73.6" height="73.6" filterUnits="userSpaceOnUse" color-interpolation-filters="sRGB">
<feFlood flood-opacity="0" result="BackgroundImageFix"/>
<feColorMatrix in="SourceAlpha" type="matrix" values="0 0 0 0 0 0 0 0 0 0 0 0 0 0 0 0 0 0 127 0"/>
<feOffset dy="4"/>
<feGaussianBlur stdDeviation="2"/>
<feColorMatrix type="matrix" values="0 0 0 0 0 0 0 0 0 0 0 0 0 0 0 0 0 0 0.25 0"/>
<feBlend mode="normal" in2="BackgroundImageFix" result="effect1_dropShadow"/>
<feBlend mode="normal" in="SourceGraphic" in2="effect1_dropShadow" result="shape"/>
</filter>
<filter id="filter1_b" x="-50" y="-54" width="173.6" height="173.6" filterUnits="userSpaceOnUse" color-interpolation-filters="sRGB">
<feFlood flood-opacity="0" result="BackgroundImageFix"/>
<feGaussianBlur in="BackgroundImage" stdDeviation="27"/>
<feComposite in2="SourceAlpha" operator="in" result="effect1_backgroundBlur"/>
<feBlend mode="normal" in="SourceGraphic" in2="effect1_backgroundBlur" result="shape"/>
</filter>
<filter id="filter2_d" x="3" y="3" width="68" height="68" filterUnits="userSpaceOnUse" color-interpolation-filters="sRGB">
<feFlood flood-opacity="0" result="BackgroundImageFix"/>
<feColorMatrix in="SourceAlpha" type="matrix" values="0 0 0 0 0 0 0 0 0 0 0 0 0 0 0 0 0 0 127 0"/>
<feOffset dy="4"/>
<feGaussianBlur stdDeviation="2"/>
<feColorMatrix type="matrix" values="0 0 0 0 0 0 0 0 0 0 0 0 0 0 0 0 0 0 0.25 0"/>
<feBlend mode="normal" in2="BackgroundImageFix" result="effect1_dropShadow"/>
<feBlend mode="normal" in="SourceGraphic" in2="effect1_dropShadow" result="shape"/>
</filter>
</defs>
</svg>
