<svg width="74" height="74" viewBox="0 0 74 74" fill="none" xmlns="http://www.w3.org/2000/svg">
<g filter="url(#filter0_d)">
<g filter="url(#filter1_b)">
<rect x="4" width="65.6" height="65.6" rx="6" fill="white" fill-opacity="0.13"/>
</g>
<path d="M59.8177 37.7429C59.5359 36.8976 58.7977 36.3089 57.843 36.1676C57.3928 36.1011 56.8773 36.1295 56.2672 36.254C55.2038 36.4713 54.4149 36.554 53.8392 36.57C56.0124 32.9364 57.7795 28.7927 58.7968 24.8922C60.4418 18.5851 59.5627 15.7118 58.5355 14.4122C55.817 10.9722 51.8509 9.12418 47.0661 9.06763C44.5135 9.03673 42.2728 9.53582 41.1038 9.89472C40.0155 9.70454 38.8453 9.59836 37.6174 9.57873C35.3157 9.54236 33.282 10.0393 31.5443 11.0605C30.5823 10.7384 29.0383 10.2842 27.2552 9.99436C23.0615 9.31254 19.6816 9.84382 17.2093 11.5735C14.2156 13.6676 12.8278 17.3062 13.0845 22.388C13.166 24.0015 14.0774 28.9105 15.5124 33.5662C16.3371 36.2422 17.2165 38.4644 18.1262 40.1716C19.4163 42.5925 20.7967 44.0182 22.3464 44.5302C23.215 44.8167 24.7932 45.0174 26.4531 43.6484C26.6635 43.9007 26.9442 44.1515 27.3167 44.3844C27.7898 44.6798 28.3683 44.9213 28.9461 45.0644C31.0282 45.5798 32.9785 45.4509 34.6425 44.7284C34.6527 45.0215 34.6606 45.3015 34.6672 45.5433C34.6782 45.9355 34.6893 46.32 34.7038 46.6796C34.8024 49.1113 34.9694 51.002 35.4644 52.3249C35.4916 52.3976 35.5281 52.5085 35.5667 52.6262C35.8136 53.3749 36.2265 54.6284 37.277 55.61C38.3648 56.6269 39.6806 56.9387 40.8857 56.9387C41.4901 56.9387 42.0668 56.8602 42.5726 56.7529C44.3755 56.3702 46.4231 55.7873 47.9043 53.6985C49.3048 51.724 49.9856 48.75 50.1087 44.064C50.1247 43.9314 50.1394 43.8049 50.1535 43.6844L50.1829 43.4367L50.5128 43.4655L50.5978 43.4711C52.4341 43.554 54.6795 43.1684 56.0585 42.534C57.1481 42.0333 60.6399 40.2076 59.8177 37.7429Z" fill="black"/>
<path d="M56.678 38.2222C51.2179 39.3376 50.8425 37.5069 50.8425 37.5069C56.6073 29.0355 59.0173 18.2822 56.9378 15.6504C51.264 8.47127 41.4426 11.8665 41.2787 11.9545L41.226 11.964C40.1472 11.7422 38.9401 11.6102 37.5831 11.5882C35.1127 11.5482 33.2386 12.2296 31.8164 13.2976C31.8164 13.2976 14.2961 6.14964 15.1111 22.2875C15.2844 25.7205 20.0799 48.2644 25.7995 41.4551C27.8901 38.9651 29.9102 36.8598 29.9102 36.8598C30.9134 37.5198 32.1144 37.8565 33.3735 37.7356L33.4714 37.6535C33.4409 37.9625 33.4548 38.2649 33.5105 38.6229C32.0369 40.2533 32.47 40.5395 29.5245 41.14C26.5438 41.7484 28.2948 42.8313 29.438 43.1145C30.8239 43.4576 34.0302 43.9438 36.1966 40.9404L36.1103 41.2831C36.6876 41.7411 37.0929 44.2618 37.025 46.5471C36.9571 48.8322 36.9117 50.4011 37.3665 51.6265C37.8216 52.852 38.2749 55.6093 42.1473 54.7876C45.3827 54.1009 47.0595 52.3215 47.2929 49.3531C47.4583 47.2429 47.833 47.5549 47.8565 45.6682L48.157 44.7751C48.5035 41.9145 48.2121 40.9916 50.2054 41.4209L50.6901 41.4631C52.157 41.5291 54.0774 41.2293 55.2045 40.7105C57.6312 39.5953 59.0706 37.7329 56.6776 38.2222H56.678Z" fill="#336791"/>
<path d="M32.8421 23.8227C32.3501 23.7549 31.9045 23.8176 31.6791 23.9867C31.5524 24.0818 31.5131 24.192 31.5024 24.2678C31.4742 24.4687 31.6163 24.6909 31.7037 24.8055C31.9508 25.1298 32.3117 25.3527 32.669 25.4018C32.7208 25.4091 32.7724 25.4124 32.8236 25.4124C33.4193 25.4124 33.9611 24.9529 34.0089 24.6138C34.0685 24.1891 33.446 23.906 32.8421 23.8229" fill="white"/>
<path d="M49.1422 23.8362C49.0952 23.5033 48.497 23.4084 47.9294 23.4866C47.3624 23.5647 46.8127 23.8182 46.8586 24.1518C46.8954 24.4113 47.3685 24.8542 47.9284 24.8542C47.9758 24.8542 48.0235 24.8511 48.0717 24.8444C48.4454 24.7931 48.7197 24.558 48.8501 24.4225C49.0484 24.216 49.1633 23.9858 49.1422 23.8362Z" fill="white"/>
<path d="M58.4949 38.0955C58.2868 37.472 57.6166 37.2715 56.5033 37.4991C53.1977 38.1747 52.0139 37.7067 51.6252 37.4233C54.1946 33.5469 56.3083 28.8611 57.4486 24.4893C57.9888 22.4184 58.2871 20.4951 58.3115 18.9275C58.3385 17.2069 58.0426 15.9425 57.4323 15.1702C54.9718 12.0565 51.3605 10.3864 46.9891 10.3405C43.9839 10.3071 41.4448 11.0687 40.9526 11.2829C39.916 11.0276 38.786 10.8709 37.5557 10.8509C35.2997 10.8147 33.3496 11.3496 31.7351 12.44C31.0337 12.1815 29.2213 11.5653 27.0048 11.2116C23.1728 10.6007 20.1277 11.0636 17.9547 12.5882C15.3618 14.4075 14.1648 17.6595 14.3966 22.2536C14.4747 23.7993 15.364 28.5542 16.7674 33.1078C18.6147 39.1013 20.6229 42.4942 22.7357 43.1922C22.983 43.2738 23.2681 43.3309 23.5826 43.3309C24.3533 43.3309 25.2983 42.9869 26.2814 41.8164C27.4806 40.3917 28.721 39.0017 30.0012 37.648C30.8318 38.0895 31.7442 38.336 32.6774 38.3607C32.6793 38.3849 32.6817 38.4091 32.6839 38.4331C32.5232 38.6228 32.3659 38.8153 32.212 39.0104C31.5654 39.8233 31.4308 39.9925 29.3494 40.4169C28.7574 40.538 27.1849 40.8589 27.1617 41.9505C27.1368 43.1433 29.0206 43.6442 29.2352 43.6973C29.9832 43.8827 30.7038 43.9742 31.391 43.9742C33.0623 43.9742 34.533 43.4302 35.7084 42.3776C35.6722 46.6296 35.8512 50.8195 36.3668 52.096C36.789 53.1411 37.8205 55.6951 41.0785 55.6949C41.5566 55.6949 42.0828 55.6398 42.6616 55.5169C46.062 54.7951 47.5386 53.3067 48.1098 50.0255C48.4155 48.2718 48.94 44.0844 49.1867 41.8382C49.7074 41.9991 50.3777 42.0727 51.1024 42.0725C52.6137 42.0725 54.3577 41.7545 55.4513 41.2518C56.6799 40.6867 58.897 39.3002 58.4949 38.0955ZM50.3974 22.9173C50.3862 23.5804 50.294 24.1824 50.1963 24.8107C50.0911 25.4865 49.9824 26.1853 49.9551 27.0335C49.9281 27.8589 50.0322 28.7171 50.1328 29.5471C50.3362 31.2235 50.545 32.9493 49.737 34.6522C49.6028 34.4167 49.4832 34.1732 49.379 33.9233C49.2785 33.6822 49.0604 33.2949 48.7584 32.7589C47.5836 30.6724 44.8325 25.7862 46.2408 23.7924C46.6603 23.1989 47.725 22.5887 50.3974 22.9173ZM47.158 11.6833C51.0748 11.7689 54.1732 13.22 56.3667 15.996C58.0492 18.1253 56.1965 27.8138 50.8332 36.1722C50.7793 36.1043 50.7251 36.0366 50.6706 35.9691L50.6026 35.8851C51.9886 33.6184 51.7176 31.3756 51.4763 29.3873C51.3772 28.5713 51.2836 27.8005 51.3074 27.0765C51.332 26.3093 51.4345 25.6511 51.5336 25.0147C51.6553 24.2305 51.7793 23.4191 51.7451 22.4625C51.7706 22.3622 51.7809 22.2436 51.7675 22.1029C51.6803 21.1856 50.6228 18.4404 48.4674 15.9556C47.2884 14.5965 45.569 13.0756 43.2214 12.0498C44.2312 11.8425 45.612 11.6493 47.158 11.6833ZM25.241 40.9596C24.1578 42.2495 23.4098 42.0022 23.1638 41.9211C21.561 41.3916 19.7012 38.0367 18.0615 32.7167C16.6427 28.1135 15.8136 23.4845 15.7479 22.1865C15.5408 18.0815 16.5456 15.2205 18.7346 13.6831C22.2971 11.1813 28.1541 12.6787 30.5075 13.4382C30.4738 13.4713 30.4385 13.5022 30.4051 13.5358C26.543 17.3984 26.6346 23.9976 26.6442 24.4011C26.6438 24.5567 26.657 24.7771 26.675 25.0802C26.7415 26.1902 26.8652 28.256 26.5348 30.5955C26.2278 32.7695 26.9045 34.8973 28.3911 36.4335C28.5436 36.5908 28.704 36.7406 28.8715 36.8822C28.2099 37.584 26.7718 39.136 25.241 40.9596ZM29.368 35.5064C28.1699 34.2682 27.6257 32.546 27.8748 30.7809C28.2236 28.3096 28.0949 26.1573 28.0257 25.0009C28.016 24.8391 28.0074 24.6973 28.0024 24.5855C28.5666 24.09 31.1812 22.7027 33.0457 23.1258C33.8965 23.3187 34.415 23.8925 34.6305 24.8795C35.746 29.9891 34.7781 32.1187 34.0004 33.8302C33.8401 34.1827 33.6887 34.516 33.5594 34.8607L33.4592 35.1273C33.2055 35.8011 32.9694 36.4276 32.823 37.0225C31.5493 37.0189 30.3102 36.48 29.368 35.5062V35.5064ZM29.5635 42.3973C29.1916 42.3053 28.857 42.1455 28.6608 42.0129C28.8247 41.9365 29.1165 41.8325 29.6224 41.7293C32.071 41.2302 32.4492 40.8778 33.275 39.8395C33.4643 39.6013 33.6789 39.3315 33.9762 39.0027L33.9766 39.0024C34.4192 38.5115 34.6217 38.5947 34.9889 38.7456C35.2865 38.8675 35.5764 39.2369 35.6939 39.6435C35.7495 39.8355 35.8119 40.1998 35.6076 40.4835C33.8826 42.8755 31.3688 42.8447 29.5635 42.3973ZM42.3782 54.2067C39.3827 54.8424 38.322 53.3287 37.6231 51.5984C37.172 50.4813 36.9502 45.4438 37.1076 39.8807C37.1096 39.8067 37.0989 39.7353 37.0784 39.668C37.06 39.5352 37.032 39.4038 36.9947 39.2749C36.7608 38.4655 36.1907 37.7884 35.5068 37.5076C35.2351 37.3962 34.7364 37.1916 34.1372 37.3435C34.265 36.822 34.4866 36.2331 34.7269 35.5955L34.8277 35.3273C34.9412 35.0249 35.0836 34.7116 35.2342 34.38C36.048 32.5895 37.1626 30.1369 35.9529 24.5964C35.4998 22.5211 33.9867 21.5076 31.6928 21.7431C30.3177 21.884 29.0595 22.4335 28.432 22.7485C28.2971 22.8162 28.1737 22.8816 28.0584 22.9453C28.2336 20.8544 28.8952 16.9467 31.3704 14.4744C32.929 12.918 35.0045 12.1493 37.5333 12.1907C42.5161 12.2715 45.7113 14.8038 47.5146 16.9142C49.0685 18.7325 49.9099 20.5644 50.2457 21.5524C47.7204 21.298 46.0029 21.7916 45.1323 23.0244C43.2381 25.7058 46.1685 30.9102 47.5768 33.4115C47.8351 33.8698 48.058 34.266 48.1281 34.4344C48.5868 35.5351 49.1805 36.27 49.614 36.8064C49.7469 36.9707 49.8758 37.1302 49.9738 37.2695C49.209 37.4878 47.8351 37.9924 47.9603 40.5144C47.8594 41.7798 47.1413 47.7045 46.7765 49.7978C46.295 52.5633 45.2674 53.5933 42.3782 54.2069V54.2067ZM54.8816 40.0365C54.0995 40.396 52.7907 40.6656 51.5474 40.7236C50.1741 40.7873 49.475 40.5713 49.3105 40.4384C49.2334 38.8667 49.824 38.7025 50.4491 38.5287C50.5474 38.5015 50.6432 38.4747 50.7357 38.4427C50.7932 38.4891 50.8562 38.5351 50.9252 38.5802C52.029 39.3016 53.9976 39.3795 56.7771 38.8113L56.8075 38.8053C56.4326 39.1524 55.7912 39.6182 54.8816 40.0365Z" fill="white"/>
</g>
<defs>
<filter id="filter0_d" x="0" y="0" width="73.6" height="73.6" filterUnits="userSpaceOnUse" color-interpolation-filters="sRGB">
<feFlood flood-opacity="0" result="BackgroundImageFix"/>
<feColorMatrix in="SourceAlpha" type="matrix" values="0 0 0 0 0 0 0 0 0 0 0 0 0 0 0 0 0 0 127 0"/>
<feOffset dy="4"/>
<feGaussianBlur stdDeviation="2"/>
<feColorMatrix type="matrix" values="0 0 0 0 0 0 0 0 0 0 0 0 0 0 0 0 0 0 0.25 0"/>
<feBlend mode="normal" in2="BackgroundImageFix" result="effect1_dropShadow"/>
<feBlend mode="normal" in="SourceGraphic" in2="effect1_dropShadow" result="shape"/>
</filter>
<filter id="filter1_b" x="-50" y="-54" width="173.6" height="173.6" filterUnits="userSpaceOnUse" color-interpolation-filters="sRGB">
<feFlood flood-opacity="0" result="BackgroundImageFix"/>
<feGaussianBlur in="BackgroundImage" stdDeviation="27"/>
<feComposite in2="SourceAlpha" operator="in" result="effect1_backgroundBlur"/>
<feBlend mode="normal" in="SourceGraphic" in2="effect1_backgroundBlur" result="shape"/>
</filter>
</defs>
</svg>
