<svg width="60" height="59" viewBox="0 0 60 59" fill="none" xmlns="http://www.w3.org/2000/svg">
<circle cx="29.9632" cy="29.0662" r="29.0662" fill="url(#paint0_linear)"/>
<g clip-path="url(#clip0)">
<path d="M29.9633 4.33823C23.405 4.33823 17.1154 6.94349 12.478 11.5809C7.84061 16.2183 5.23535 22.5079 5.23535 29.0662C5.23535 35.6244 7.84061 41.9141 12.478 46.5515C17.1154 51.1889 23.405 53.7941 29.9633 53.7941C36.5216 53.7941 42.8112 51.1889 47.4486 46.5515C52.086 41.9141 54.6912 35.6244 54.6912 29.0662C54.6912 22.5079 52.086 16.2183 47.4486 11.5809C42.8112 6.94349 36.5216 4.33823 29.9633 4.33823V4.33823ZM36.4812 49.2256H36.2895C36.1456 49.2338 36.0015 49.2124 35.8661 49.1628C35.7307 49.1131 35.607 49.0364 35.5024 48.9371C35.4057 48.835 35.3304 48.7146 35.2808 48.5829C35.2313 48.4513 35.2085 48.3111 35.2139 48.1706V45.2733C35.2262 44.311 35.2345 43.3363 35.2345 42.3554C35.2311 41.6381 35.1263 40.9249 34.9233 40.237C34.731 39.5416 34.3434 38.9159 33.8064 38.4339C35.2427 38.2953 36.6546 37.969 38.0061 37.4634C39.1461 37.0299 40.1772 36.3518 41.027 35.4769C41.8657 34.597 42.4901 33.5337 42.8507 32.3735C43.2893 30.9528 43.498 29.471 43.4689 27.9843C43.4769 26.9463 43.2953 25.9156 42.9331 24.9428C42.565 23.9623 42.0085 23.0634 41.2949 22.2969C41.4489 21.9103 41.5608 21.5082 41.6287 21.0976C41.6967 20.6855 41.7317 20.2692 41.7317 19.853C41.7317 19.3172 41.6699 18.7814 41.5463 18.2601C41.4339 17.7253 41.2817 17.1998 41.0909 16.6878C41.018 16.6594 40.9403 16.6454 40.8621 16.6466H40.6355C40.1615 16.6507 39.6958 16.729 39.2466 16.8753C38.7517 17.0197 38.2677 17.1988 37.7979 17.4111C37.3308 17.6205 36.876 17.8565 36.4358 18.1179C35.9928 18.3796 35.6013 18.631 35.2551 18.8638C31.7885 17.8977 28.1237 17.8977 24.6571 18.8638C24.2705 18.6054 23.8775 18.3566 23.4784 18.1179C23.032 17.8543 22.5695 17.6189 22.0936 17.4131C21.6252 17.1938 21.1392 17.0139 20.6409 16.8753C20.2005 16.7298 19.7404 16.6527 19.2767 16.6466H19.05C18.9725 16.6455 18.8955 16.6595 18.8234 16.6878C18.6298 17.2005 18.4714 17.7258 18.3494 18.2601C18.2381 18.7835 18.1846 19.3172 18.1825 19.853C18.1825 20.2692 18.2175 20.6855 18.2876 21.0976C18.3556 21.5077 18.4648 21.9095 18.6173 22.2969C17.9055 23.0645 17.3511 23.9641 16.9852 24.9449C16.6211 25.9173 16.4374 26.948 16.4433 27.9864C16.4145 29.4651 16.6175 30.9392 17.045 32.355C17.418 33.5151 18.0403 34.5805 18.8666 35.479C19.7218 36.3486 20.7521 37.0245 21.8876 37.4654C23.2332 37.9806 24.6427 38.3103 26.0769 38.4463C25.6764 38.8093 25.3588 39.2541 25.1455 39.7507C24.9425 40.2418 24.804 40.7572 24.7333 41.2838C23.9772 41.6459 23.1503 41.8359 22.3121 41.8402C21.5336 41.8714 20.7652 41.6549 20.1175 41.222C19.496 40.7615 18.9698 40.1849 18.5678 39.524C18.3879 39.2465 18.1868 38.9833 17.9661 38.7369C17.7333 38.4777 17.4767 38.2411 17.1996 38.0301C16.9264 37.8259 16.627 37.6596 16.3093 37.5355C15.9969 37.3985 15.6594 37.3276 15.3182 37.3274C15.2357 37.3294 15.1533 37.3377 15.0709 37.348C14.9583 37.3476 14.8462 37.3615 14.7371 37.3892C14.6412 37.4143 14.5505 37.4562 14.4692 37.5128C14.4322 37.5332 14.4013 37.563 14.3796 37.5992C14.3579 37.6354 14.3461 37.6767 14.3455 37.7189C14.3542 37.8181 14.3845 37.9141 14.4344 38.0003C14.4842 38.0865 14.5524 38.1606 14.634 38.2176C14.8257 38.3701 14.9843 38.4875 15.1121 38.5699L15.1739 38.6132C15.448 38.8255 15.7118 39.0542 15.9611 39.2994C16.1919 39.5014 16.4 39.7301 16.5793 39.9794C16.7648 40.2247 16.9255 40.4864 17.0553 40.7646C17.2057 41.0407 17.3644 41.358 17.5313 41.7186C17.9187 42.6954 18.607 43.5217 19.4972 44.0781C20.4307 44.5788 21.4775 44.8282 22.5387 44.8014C22.8973 44.8014 23.2579 44.7808 23.6144 44.7396C23.9688 44.6819 24.3212 44.6221 24.6756 44.552V48.1438C24.682 48.2886 24.6578 48.4331 24.6046 48.568C24.5513 48.7028 24.4702 48.8248 24.3665 48.9262C24.2629 49.0275 24.139 49.1058 24.003 49.156C23.867 49.2062 23.7219 49.2271 23.5773 49.2174H23.4495C18.6442 47.665 14.5509 44.448 11.9069 40.1456C9.26285 35.8431 8.24179 30.7381 9.02755 25.7497C9.81331 20.7613 12.3543 16.2173 16.1929 12.9361C20.0315 9.65478 24.9154 7.85181 29.9654 7.85181C35.0153 7.85181 39.8993 9.65478 43.7378 12.9361C47.5764 16.2173 50.1174 20.7613 50.9032 25.7497C51.6889 30.7381 50.6679 35.8431 48.0238 40.1456C45.3798 44.448 41.2865 47.665 36.4812 49.2174V49.2277V49.2256Z" fill="black"/>
</g>
<defs>
<linearGradient id="paint0_linear" x1="0.896973" y1="29.0662" x2="59.0293" y2="29.0662" gradientUnits="userSpaceOnUse">
<stop stop-color="#84FAB0"/>
<stop offset="1" stop-color="#8FD3F4"/>
</linearGradient>
<clipPath id="clip0">
<rect width="49.4559" height="49.4559" fill="white" transform="translate(5.23535 4.33823)"/>
</clipPath>
</defs>
</svg>
