<svg width="59" height="59" viewBox="0 0 59 59" fill="none" xmlns="http://www.w3.org/2000/svg">
<circle cx="29.4192" cy="29.9339" r="29.0662" fill="url(#paint0_linear)"/>
<path d="M44.4945 11.9708H14.3436C12.7494 11.9708 11.4561 13.2642 11.4561 14.8584V45.0093C11.4561 46.6035 12.7494 47.8969 14.3436 47.8969H44.4945C46.0887 47.8969 47.3821 46.6035 47.3821 45.0093V14.8584C47.3821 13.2642 46.0887 11.9708 44.4945 11.9708ZM44.4945 45.0228C24.3849 45.0183 14.3301 45.0138 14.3301 45.0093C14.3346 24.8997 14.3391 14.8449 14.3436 14.8449C34.4532 14.8494 44.508 14.8539 44.508 14.8584C44.5035 34.968 44.499 45.0228 44.4945 45.0228ZM16.7821 25.4386H22.1126V42.5843H16.7821V25.4386ZM19.4496 23.0944C21.1516 23.0944 22.5392 21.7113 22.5392 20.0048C22.5392 19.5991 22.4593 19.1973 22.304 18.8225C22.1488 18.4476 21.9212 18.107 21.6343 17.8201C21.3474 17.5332 21.0068 17.3056 20.6319 17.1504C20.2571 16.9951 19.8553 16.9152 19.4496 16.9152C19.0439 16.9152 18.6421 16.9951 18.2672 17.1504C17.8924 17.3056 17.5518 17.5332 17.2649 17.8201C16.978 18.107 16.7504 18.4476 16.5951 18.8225C16.4399 19.1973 16.36 19.5991 16.36 20.0048C16.3555 21.7113 17.7386 23.0944 19.4496 23.0944ZM30.7798 34.1013C30.7798 31.8649 31.2064 29.7003 33.9772 29.7003C36.7076 29.7003 36.748 32.2556 36.748 34.245V42.5843H42.074V33.1807C42.074 28.5642 41.0771 25.012 35.6837 25.012C33.0925 25.012 31.3546 26.4356 30.6405 27.7828H30.5687V25.4386H25.4537V42.5843H30.7798V34.1013Z" fill="black"/>
<defs>
<linearGradient id="paint0_linear" x1="0.353027" y1="29.9339" x2="58.4854" y2="29.9339" gradientUnits="userSpaceOnUse">
<stop stop-color="#84FAB0"/>
<stop offset="1" stop-color="#8FD3F4"/>
</linearGradient>
</defs>
</svg>
