<svg width="56" height="56" viewBox="0 0 56 56" fill="none" xmlns="http://www.w3.org/2000/svg">
<path d="M54.944 25.5054L30.4938 1.05609C29.0866 -0.35203 26.8028 -0.35203 25.3939 1.05609L20.3167 6.13337L26.7573 12.5741C28.254 12.0684 29.9703 12.4077 31.1634 13.6008C32.3622 14.8015 32.699 16.5325 32.181 18.034L38.3881 24.2414C39.8898 23.724 41.6225 24.0587 42.8219 25.2601C44.4982 26.9358 44.4982 29.6516 42.8219 31.3284C41.1452 33.0053 38.4294 33.0053 36.7518 31.3284C35.4909 30.0662 35.1794 28.2144 35.8178 26.661L30.0292 20.8724L30.0285 36.1057C30.4481 36.3132 30.8314 36.5873 31.1634 36.9173C32.8397 38.593 32.8397 41.309 31.1634 42.9871C29.4867 44.6632 26.7696 44.6632 25.0953 42.9871C23.419 41.309 23.419 38.5932 25.0953 36.9175C25.497 36.5156 25.9744 36.1973 26.4999 35.981V20.6057C25.9736 20.3909 25.4959 20.0724 25.0953 19.6692C23.8252 18.4009 23.5198 16.5373 24.1706 14.9778L17.8216 8.62804L1.05656 25.3923C-0.352188 26.8017 -0.352188 29.0857 1.05656 30.494L25.5072 54.9437C26.9148 56.3521 29.1981 56.3521 30.6076 54.9437L54.9438 30.6076C56.3521 29.1988 56.3523 26.9135 54.944 25.5054Z" fill="#DE4C36"/>
</svg>
