<svg width="59" height="59" viewBox="0 0 59 59" fill="none" xmlns="http://www.w3.org/2000/svg">
<circle cx="29.0662" cy="29.9339" r="29.0662" fill="url(#paint0_linear)"/>
<g clip-path="url(#clip0)">
<path d="M39.5968 34.4993C39.0205 34.2076 36.214 32.8381 35.6895 32.6427C35.1649 32.4559 34.7841 32.3581 34.4019 32.9344C34.0282 33.4963 32.9275 34.7824 32.5912 35.1575C32.2549 35.5326 31.9244 35.5613 31.3568 35.3069C30.7805 35.0152 28.9397 34.416 26.7539 32.4559C25.0467 30.9369 23.91 29.0659 23.5723 28.4896C23.2361 27.9206 23.535 27.5987 23.8195 27.3141C24.081 27.0526 24.3958 26.656 24.6875 26.3111C24.9648 25.9662 25.0539 25.7348 25.2565 25.3612C25.4434 24.9574 25.3471 24.6427 25.2048 24.3581C25.0625 24.0736 23.9172 21.2527 23.4387 20.1289C22.9817 19.0138 22.5032 19.1561 22.1511 19.1561C21.822 19.1259 21.4398 19.1259 21.0589 19.1259C20.6781 19.1259 20.0559 19.2681 19.5314 19.8142C19.0069 20.3905 17.5253 21.7672 17.5253 24.5521C17.5253 27.3443 19.5759 30.0459 19.8605 30.4498C20.1522 30.8234 23.8942 36.5715 29.6352 39.0418C31.0047 39.6181 32.0681 39.963 32.8987 40.2475C34.2682 40.6815 35.5184 40.6211 36.5057 40.4789C37.5978 40.2992 39.8885 39.0936 40.3685 37.747C40.8556 36.3919 40.8556 35.2696 40.7133 35.0152C40.5711 34.7537 40.1974 34.6114 39.6212 34.3571L39.5968 34.4993ZM29.1854 48.6154H29.1552C25.7566 48.6154 22.3968 47.6942 19.4624 45.9727L18.7741 45.5617L11.5888 47.4327L13.5202 40.4415L13.0561 39.723C11.1584 36.7057 10.1517 33.2137 10.1518 29.6493C10.1518 19.2164 18.6921 10.7063 29.1998 10.7063C34.2898 10.7063 39.0651 12.6894 42.6577 16.282C44.4299 18.0331 45.8357 20.1197 46.793 22.4199C47.7503 24.7202 48.24 27.188 48.2334 29.6795C48.219 40.1052 39.6859 48.6154 29.1926 48.6154H29.1854ZM45.3895 13.5502C41.018 9.32813 35.2698 6.94121 29.1552 6.94121C16.5438 6.94121 6.27467 17.1658 6.26749 29.7312C6.26749 33.7435 7.31509 37.6579 9.3212 41.1227L6.07349 52.9265L18.2136 49.7607C21.5767 51.5739 25.3359 52.5276 29.1567 52.5371H29.1639C41.7825 52.5371 52.0516 42.3125 52.0588 29.7384C52.0588 23.654 49.6862 17.9274 45.3607 13.6234L45.3895 13.5502Z" fill="black"/>
</g>
<defs>
<linearGradient id="paint0_linear" x1="0" y1="29.9339" x2="58.1324" y2="29.9339" gradientUnits="userSpaceOnUse">
<stop stop-color="#84FAB0"/>
<stop offset="1" stop-color="#8FD3F4"/>
</linearGradient>
<clipPath id="clip0">
<rect width="45.9853" height="45.9853" fill="white" transform="translate(6.07349 6.94121)"/>
</clipPath>
</defs>
</svg>
